<?xml version="1.0" encoding="UTF-8" standalone="no"?>
<!-- Created with Inkscape (http://www.inkscape.org/) -->

<svg
   xmlns:osb="http://www.openswatchbook.org/uri/2009/osb"
   xmlns:dc="http://purl.org/dc/elements/1.1/"
   xmlns:cc="http://creativecommons.org/ns#"
   xmlns:rdf="http://www.w3.org/1999/02/22-rdf-syntax-ns#"
   xmlns:svg="http://www.w3.org/2000/svg"
   xmlns="http://www.w3.org/2000/svg"
   xmlns:sodipodi="http://sodipodi.sourceforge.net/DTD/sodipodi-0.dtd"
   xmlns:inkscape="http://www.inkscape.org/namespaces/inkscape"
   width="210mm"
   height="148mm"
   viewBox="0 0 210 148"
   version="1.1"
   id="svg8"
   inkscape:version="0.92.3 (2405546, 2018-03-11)"
   sodipodi:docname="methodology_timeline.svg">
  <defs
     id="defs2">
    <linearGradient
       id="linearGradient4526"
       osb:paint="solid">
      <stop
         id="stop4530"
         offset="0"
         style="stop-color:#000000;stop-opacity:1;" />
    </linearGradient>
    <linearGradient
       id="linearGradient4526-3">
      <stop
         style="stop-color:#000000;stop-opacity:1;"
         offset="0"
         id="stop4524" />
    </linearGradient>
  </defs>
  <sodipodi:namedview
     id="base"
     pagecolor="#ffffff"
     bordercolor="#666666"
     borderopacity="1.0"
     inkscape:pageopacity="0.0"
     inkscape:pageshadow="2"
     inkscape:zoom="1.4450921"
     inkscape:cx="373.23971"
     inkscape:cy="310.62619"
     inkscape:document-units="mm"
     inkscape:current-layer="layer4"
     showgrid="false"
     inkscape:window-width="1920"
     inkscape:window-height="1029"
     inkscape:window-x="0"
     inkscape:window-y="25"
     inkscape:window-maximized="1" />
  <metadata
     id="metadata5">
    <rdf:RDF>
      <cc:Work
         rdf:about="">
        <dc:format>image/svg+xml</dc:format>
        <dc:type
           rdf:resource="http://purl.org/dc/dcmitype/StillImage" />
        <dc:title />
      </cc:Work>
    </rdf:RDF>
  </metadata>
  <g
     inkscape:label="Base Shapes"
     inkscape:groupmode="layer"
     id="layer1"
     transform="translate(0,-149)">
    <flowRoot
       xml:space="preserve"
       id="flowRoot4545"
       style="font-style:normal;font-weight:normal;font-size:40px;line-height:1.25;font-family:sans-serif;letter-spacing:0px;word-spacing:0px;fill:#000000;fill-opacity:1;stroke:none"
       transform="matrix(0.26458333,0,0,0.26458333,-2.7786273,116.38198)"><flowRegion
         id="flowRegion4547"><rect
           id="rect4549"
           width="148.21428"
           height="55.357143"
           x="48.57143"
           y="197.16254" /></flowRegion><flowPara
         id="flowPara4551">February 2016 -- March 201May 20June 2016</flowPara></flowRoot>    <g
       transform="matrix(1,0,0,-1,29.855874,258.83246)"
       id="g298"
       style="fill:#91aa9d;fill-opacity:1;stroke:#99cc33">
      <flowRoot
         transform="translate(-4.1428762,0.12946488)"
         style="font-style:normal;font-weight:normal;font-size:10.66666698px;line-height:1.25;font-family:sans-serif;letter-spacing:0px;word-spacing:0px;fill:#91aa9d;fill-opacity:1;stroke:#99cc33"
         id="flowRoot270"
         xml:space="preserve"><flowRegion
           style="font-size:10.66666698px;fill:#91aa9d;fill-opacity:1;stroke:#99cc33"
           id="flowRegion266"><rect
             style="font-size:10.66666698px;fill:#91aa9d;fill-opacity:1;stroke:#99cc33"
             y="208.23396"
             x="147.85715"
             height="58.92857"
             width="125.71429"
             id="rect264" /></flowRegion><flowPara
           id="flowPara268" /></flowRoot>      <g
         transform="translate(-15.047513,0.42282937)"
         id="g296"
         style="fill:#91aa9d;fill-opacity:1;stroke:#99cc33">
        <path
           inkscape:transform-center-y="8.4809845"
           transform="scale(-1)"
           d="m -18.743833,-49.866634 -58.757939,0 29.378969,-50.885866 z"
           inkscape:randomized="0"
           inkscape:rounded="0"
           inkscape:flatsided="true"
           sodipodi:arg2="1.5707963"
           sodipodi:arg1="0.52359878"
           sodipodi:r2="16.961954"
           sodipodi:r1="33.923912"
           sodipodi:cy="-66.82859"
           sodipodi:cx="-48.122803"
           sodipodi:sides="3"
           id="path272"
           style="fill:#91aa9d;fill-opacity:1;stroke:#91aa9d;stroke-width:0.24811682;stroke-opacity:1"
           sodipodi:type="star" />
      </g>
    </g>
    <flowRoot
       transform="matrix(1,0,0,-1,91.329709,258.703)"
       style="font-style:normal;font-weight:normal;font-size:10.66666698px;line-height:1.25;font-family:sans-serif;letter-spacing:0px;word-spacing:0px;fill:#193441;fill-opacity:1;stroke:#193441;stroke-opacity:1"
       id="flowRoot645"
       xml:space="preserve"><flowRegion
         style="font-size:10.66666698px;fill:#193441;fill-opacity:1;stroke:#193441;stroke-opacity:1"
         id="flowRegion641"><rect
           style="font-size:10.66666698px;fill:#193441;fill-opacity:1;stroke:#193441;stroke-opacity:1"
           y="208.23396"
           x="147.85715"
           height="58.92857"
           width="125.71429"
           id="rect639" /></flowRegion><flowPara
         id="flowPara643" /></flowRoot>    <path
       sodipodi:type="star"
       style="fill:#193441;fill-opacity:1;stroke:#193441;stroke-width:0.24811682;stroke-opacity:1"
       id="path647"
       sodipodi:sides="3"
       sodipodi:cx="-128.54788"
       sodipodi:cy="191.58104"
       sodipodi:r1="33.923912"
       sodipodi:r2="16.961954"
       sodipodi:arg1="0.52359878"
       sodipodi:arg2="1.5707963"
       inkscape:flatsided="true"
       inkscape:rounded="0"
       inkscape:randomized="0"
       d="m -99.168913,208.543 -58.757937,0 29.37897,-50.88587 z"
       transform="scale(-1,1)"
       inkscape:transform-center-y="8.4809845" />
    <g
       style="fill:#193441;fill-opacity:1;stroke:#193441;stroke-opacity:1"
       transform="matrix(0.26458333,0,0,-0.26458333,124.79527,195.73804)"
       id="g669">
      <flowRoot
         transform="translate(-194.07143,-226.94826)"
         style="font-style:normal;font-weight:normal;font-size:10.66666698px;line-height:1.25;font-family:sans-serif;letter-spacing:0px;word-spacing:0px;fill:#193441;fill-opacity:1;stroke:#193441;stroke-opacity:1"
         id="flowRoot659"
         xml:space="preserve"><flowRegion
           style="font-size:10.66666698px;fill:#193441;fill-opacity:1;stroke:#193441;stroke-opacity:1"
           id="flowRegion655"><rect
             style="font-size:10.66666698px;fill:#193441;fill-opacity:1;stroke:#193441;stroke-opacity:1"
             y="362.87683"
             x="153.57143"
             height="110.71429"
             width="134.64285"
             id="rect653" /></flowRegion><flowPara
           id="flowPara657" /></flowRoot>      <flowRoot
         transform="translate(-194.07143,-226.94826)"
         style="font-style:normal;font-weight:normal;font-size:40px;line-height:1.25;font-family:sans-serif;letter-spacing:0px;word-spacing:0px;fill:#193441;fill-opacity:1;stroke:#193441;stroke-opacity:1"
         id="flowRoot667"
         xml:space="preserve"><flowRegion
           style="fill:#193441;fill-opacity:1;stroke:#193441;stroke-opacity:1"
           id="flowRegion663"><rect
             style="fill:#193441;fill-opacity:1;stroke:#193441;stroke-opacity:1"
             y="231.44826"
             x="96.785713"
             height="143.57143"
             width="70.35714"
             id="rect661" /></flowRegion><flowPara
           id="flowPara665" /></flowRoot>    </g>
    <flowRoot
       xml:space="preserve"
       id="flowRoot425"
       style="font-style:normal;font-weight:normal;font-size:10.66666698px;line-height:1.25;font-family:sans-serif;letter-spacing:0px;word-spacing:0px;fill:#000000;fill-opacity:1;stroke:none"
       transform="translate(58.52135,107.11413)"><flowRegion
         id="flowRegion421"
         style="font-size:10.66666698px"><rect
           id="rect419"
           width="125.71429"
           height="58.92857"
           x="147.85715"
           y="208.23396"
           style="font-size:10.66666698px" /></flowRegion><flowPara
         id="flowPara423" /></flowRoot>    <path
       style="fill:none;stroke-width:0.26458332"
       inkscape:connector-curvature="0"
       d="m 90.714153,172.0056 h 6.35 v 6.35 h -6.35 z"
       id="path521" />
    <path
       sodipodi:type="star"
       style="fill:#3e606f;fill-opacity:1;stroke:#3e606f;stroke-width:0.24811682;stroke-opacity:1"
       id="path427"
       sodipodi:sides="3"
       sodipodi:cx="-95.739517"
       sodipodi:cy="-174.23608"
       sodipodi:r1="33.923912"
       sodipodi:r2="16.961954"
       sodipodi:arg1="0.52359878"
       sodipodi:arg2="1.5707963"
       inkscape:flatsided="true"
       inkscape:rounded="0"
       inkscape:randomized="0"
       d="m -66.360548,-157.27413 -58.757942,0 29.378973,-50.88587 z"
       transform="scale(-1)"
       inkscape:transform-center-y="8.4809845" />
    <flowRoot
       transform="translate(124.13806,107.11413)"
       style="font-style:normal;font-weight:normal;font-size:10.66666698px;line-height:1.25;font-family:sans-serif;letter-spacing:0px;word-spacing:0px;fill:#000000;fill-opacity:1;stroke:none"
       id="flowRoot141"
       xml:space="preserve"><flowRegion
         style="font-size:10.66666698px"
         id="flowRegion137"><rect
           style="font-size:10.66666698px"
           y="208.23396"
           x="147.85715"
           height="58.92857"
           width="125.71429"
           id="rect135" /></flowRegion><flowPara
         id="flowPara139" /></flowRoot>    <path
       id="path143"
       d="m 156.33087,172.0056 h 6.35 v 6.35 h -6.35 z"
       inkscape:connector-curvature="0"
       style="fill:none;stroke-width:0.26458332" />
    <path
       style="fill:#286d8d;fill-opacity:1;stroke:#286d8d;stroke-width:0.24811682;stroke-opacity:1"
       inkscape:transform-center-y="8.4809845"
       d="m 131.97726,157.27413 h 50.33576 l 25.23369,23.31207 -25.23369,27.5738 h -20.95679 z"
       id="path145"
       inkscape:connector-curvature="0"
       sodipodi:nodetypes="cccccc" />
    <path
       style="fill:none;stroke-width:0.26458332"
       inkscape:connector-curvature="0"
       d="m 158.18123,168.30143 h 6.35 v 6.35 h -6.35 z"
       id="path221" />
    <g
       id="g4566"
       transform="translate(-2.9524813,106.98467)"
       style="fill:#d1dbbd;fill-opacity:1;stroke:#d1dbbd;stroke-opacity:1">
      <flowRoot
         xml:space="preserve"
         id="flowRoot4568"
         style="font-style:normal;font-weight:normal;font-size:10.66666698px;line-height:1.25;font-family:sans-serif;letter-spacing:0px;word-spacing:0px;fill:#d1dbbd;fill-opacity:1;stroke:#d1dbbd;stroke-opacity:1"
         transform="translate(-4.1428762,0.12946488)"><flowRegion
           id="flowRegion4570"
           style="font-size:10.66666698px;fill:#d1dbbd;fill-opacity:1;stroke:#d1dbbd;stroke-opacity:1"><rect
             id="rect4572"
             width="125.71429"
             height="58.92857"
             x="147.85715"
             y="208.23396"
             style="font-size:10.66666698px;fill:#d1dbbd;fill-opacity:1;stroke:#d1dbbd;stroke-opacity:1" /></flowRegion><flowPara
           id="flowPara4574" /></flowRoot>      <g
         id="g197"
         transform="translate(-15.047513,0.42282937)"
         style="fill:#d1dbbd;fill-opacity:1;stroke:#d1dbbd;stroke-opacity:1">
        <path
           sodipodi:nodetypes="ccccc"
           inkscape:connector-curvature="0"
           id="path14"
           d="m -18.743833,-49.866634 h -58.757939 l 29.378969,-50.885866 h 29.37897 z"
           inkscape:transform-center-y="8.4809845"
           style="fill:#d1dbbd;fill-opacity:1;stroke:#d1dbbd;stroke-width:0.24811682;stroke-opacity:1"
           transform="scale(-1)" />
        <g
           transform="matrix(0.26458333,0,0,0.26458333,44.370199,62.671592)"
           id="g105"
           style="fill:#d1dbbd;fill-opacity:1;stroke:#d1dbbd;stroke-opacity:1">
          <path
             style="fill:#d1dbbd;fill-opacity:1;stroke:#d1dbbd;stroke-opacity:1"
             inkscape:connector-curvature="0"
             d="M 0,0 H 24 V 24 H 0 Z"
             id="path91" />
          <flowRoot
             transform="translate(-194.07143,-226.94826)"
             style="font-style:normal;font-weight:normal;font-size:10.66666698px;line-height:1.25;font-family:sans-serif;letter-spacing:0px;word-spacing:0px;fill:#d1dbbd;fill-opacity:1;stroke:#d1dbbd;stroke-opacity:1"
             id="flowRoot107"
             xml:space="preserve"><flowRegion
               style="font-size:10.66666698px;fill:#d1dbbd;fill-opacity:1;stroke:#d1dbbd;stroke-opacity:1"
               id="flowRegion109"><rect
                 style="font-size:10.66666698px;fill:#d1dbbd;fill-opacity:1;stroke:#d1dbbd;stroke-opacity:1"
                 y="362.87683"
                 x="153.57143"
                 height="110.71429"
                 width="134.64285"
                 id="rect111" /></flowRegion><flowPara
               id="flowPara113" /></flowRoot>          <flowRoot
             transform="translate(-194.07143,-226.94826)"
             style="font-style:normal;font-weight:normal;font-size:40px;line-height:1.25;font-family:sans-serif;letter-spacing:0px;word-spacing:0px;fill:#d1dbbd;fill-opacity:1;stroke:#d1dbbd;stroke-opacity:1"
             id="flowRoot115"
             xml:space="preserve"><flowRegion
               id="flowRegion117"
               style="fill:#d1dbbd;fill-opacity:1;stroke:#d1dbbd;stroke-opacity:1"><rect
                 y="231.44826"
                 x="96.785713"
                 height="143.57143"
                 width="70.35714"
                 id="rect119"
                 style="fill:#d1dbbd;fill-opacity:1;stroke:#d1dbbd;stroke-opacity:1" /></flowRegion><flowPara
               id="flowPara121" /></flowRoot>        </g>
      </g>
    </g>
  </g>
  <g
     inkscape:groupmode="layer"
     id="layer2"
     inkscape:label="Shape Date Annotations"
     style="display:inline" />
  <g
     inkscape:groupmode="layer"
     id="layer3"
     inkscape:label="Shape Content"
     style="display:inline">
    <g
       id="g376"
       transform="matrix(0.47205693,0,0,0.47205693,57.266481,27.725987)">
      <path
         id="path362"
         d="M 0,0 H 24 V 24 H 0 Z"
         inkscape:connector-curvature="0"
         style="fill:none" />
      <path
         id="path364"
         d="m 19.380729,10.846252 c 3.063003,0 5.517096,-2.4725449 5.517096,-5.5355476 0,-3.0630027 -2.454093,-5.53554708 -5.517096,-5.53554708 -3.063002,0 -5.535547,2.47254438 -5.535547,5.53554708 0,3.0630027 2.472545,5.5355476 5.535547,5.5355476 z m -14.7614584,0 c 3.0630027,0 5.5170954,-2.4725449 5.5170954,-5.5355476 0,-3.0630027 -2.4540927,-5.53554708 -5.5170954,-5.53554708 -3.0630027,0 -5.53554704,2.47254438 -5.53554704,5.53554708 0,3.0630027 2.47254434,5.5355476 5.53554704,5.5355476 z m 0,3.690364 c -4.29927487,0 -12.9162764,2.158864 -12.9162764,6.458139 V 25.60771 H 17.535547 v -4.612955 c 0,-4.299275 -8.6170015,-6.458139 -12.9162764,-6.458139 z m 14.7614584,0 c -0.535102,0 -1.144013,0.0369 -1.789826,0.09226 2.140411,1.549954 3.635009,3.63501 3.635009,6.36588 v 4.612955 h 11.071094 v -4.612955 c 0,-4.299275 -8.617002,-6.458139 -12.916277,-6.45814 z"
         inkscape:connector-curvature="0"
         style="fill:#ffffff;stroke-width:1.8451823" />
    </g>
    <flowRoot
       transform="matrix(0.26458333,0,0,0.26458333,-0.0736333,-18.73705)"
       style="font-style:normal;font-weight:normal;font-size:13.33333397px;line-height:1.25;font-family:sans-serif;letter-spacing:0px;word-spacing:0px;fill:#000000;fill-opacity:1;stroke:none"
       id="flowRoot4537"
       xml:space="preserve"><flowRegion
         style="font-size:13.33333397px;fill:#000000"
         id="flowRegion4539"><rect
           style="font-size:13.33333397px;fill:#000000"
           y="106.8113"
           x="20.708128"
           height="61.114231"
           width="331.33005"
           id="rect4541" /></flowRegion><flowPara
         style="font-style:normal;font-variant:normal;font-weight:bold;font-stretch:normal;font-size:14.66666685px;font-family:sans-serif;-inkscape-font-specification:'sans-serif, Bold';font-variant-ligatures:normal;font-variant-caps:normal;font-variant-numeric:normal;font-feature-settings:normal;text-align:start;writing-mode:lr-tb;text-anchor:start;fill:#ffffff"
         id="flowPara4543">Initial Fieldwork</flowPara></flowRoot>    <g
       id="g365"
       transform="matrix(0.88584858,0,0,0.88584858,8.954694,23.086885)">
      <path
         id="path351"
         d="M 0,0 H 24 V 24 H 0 Z"
         inkscape:connector-curvature="0"
         style="fill:none" />
      <path
         id="path353"
         d="M 14,2 H 6 C 4.9,2 4.01,2.9 4.01,4 L 4,20 c 0,1.1 0.89,2 1.99,2 H 18 c 1.1,0 2,-0.9 2,-2 V 8 Z m 2,16 H 8 v -2 h 8 z m 0,-4 H 8 v -2 h 8 z M 13,9 V 3.5 L 18.5,9 Z"
         inkscape:connector-curvature="0"
         style="fill:#ffffff" />
    </g>
    <flowRoot
       xml:space="preserve"
       id="flowRoot306"
       style="font-style:normal;font-weight:normal;font-size:13.33333397px;line-height:1.25;font-family:sans-serif;letter-spacing:0px;word-spacing:0px;fill:#000000;fill-opacity:1;stroke:none"
       transform="matrix(0.26458333,0,0,0.26458333,34.989026,25.89534)"><flowRegion
         id="flowRegion302"
         style="font-size:13.33333397px;fill:#000000"><rect
           id="rect300"
           width="331.33005"
           height="61.114231"
           x="20.708128"
           y="106.8113"
           style="font-size:13.33333397px;fill:#000000" /></flowRegion><flowPara
         id="flowPara304"
         style="font-style:normal;font-variant:normal;font-weight:bold;font-stretch:normal;font-size:14.66666698px;font-family:sans-serif;-inkscape-font-specification:'sans-serif, Bold';font-variant-ligatures:normal;font-variant-caps:normal;font-variant-numeric:normal;font-feature-settings:normal;text-align:start;writing-mode:lr-tb;text-anchor:start;fill:#ffffff">Participatory Design</flowPara></flowRoot>    <flowRoot
       transform="matrix(0.26458333,0,0,0.26458333,97.160995,25.89534)"
       style="font-style:normal;font-weight:normal;font-size:13.33333397px;line-height:1.25;font-family:sans-serif;letter-spacing:0px;word-spacing:0px;fill:#ff9900;fill-opacity:1;stroke:none"
       id="flowRoot681"
       xml:space="preserve"><flowRegion
         style="font-size:13.33333397px;fill:#ff9900"
         id="flowRegion677"><rect
           style="font-size:13.33333397px;fill:#ff9900"
           y="106.8113"
           x="20.708128"
           height="61.114231"
           width="331.33005"
           id="rect675" /></flowRegion><flowPara
         style="font-style:normal;font-variant:normal;font-weight:bold;font-stretch:normal;font-size:14.66666698px;font-family:sans-serif;-inkscape-font-specification:'sans-serif, Bold';font-variant-ligatures:normal;font-variant-caps:normal;font-variant-numeric:normal;font-feature-settings:normal;text-align:start;writing-mode:lr-tb;text-anchor:start;fill:#ffffff"
         id="flowPara679">Expanded Deployments</flowPara></flowRoot>    <g
       id="g759"
       transform="matrix(0.71317517,0,0,0.71317517,116.87877,25.158964)">
      <path
         id="path745"
         d="M 0,0 H 24 V 24 H 0 Z"
         inkscape:connector-curvature="0"
         style="fill:none" />
      <path
         id="path747"
         d="M 9.0293568,6 H 27.029357 V 4 H 9.0293568 c -1.1,0 -2,0.9 -2,2 v 11 h -2 v 3 H 19.029357 V 17 H 9.0293568 Z M 28.029357,8 h -6 c -0.55,0 -1,0.45 -1,1 v 10 c 0,0.55 0.45,1 1,1 h 6 c 0.55,0 1,-0.45 1,-1 V 9 c 0,-0.55 -0.45,-1 -1,-1 z m -1,9 h -4 v -7 h 4 z"
         inkscape:connector-curvature="0"
         style="fill:#ffffff" />
    </g>
    <path
       style="fill:#ffffff;stroke-width:0.84867483"
       inkscape:connector-curvature="0"
       d="m 95.587089,34.133161 c 0.01698,-0.13582 0.03394,-0.271582 0.03394,-0.415855 0,-0.144273 -0.01698,-0.280064 -0.03394,-0.415855 l 0.916568,-0.695905 c 0.08487,-0.05946 0.101836,-0.178228 0.05092,-0.271583 l -0.874136,-1.468201 c -0.05092,-0.09341 -0.169735,-0.127368 -0.263089,-0.09341 l -1.086303,0.424337 C 94.101904,31.026939 93.855789,30.891162 93.5927,30.78083 l -0.169735,-1.128738 c 0,-0.101865 -0.09336,-0.178228 -0.203683,-0.178228 h -1.739784 c -0.110332,0 -0.203681,0.07636 -0.220654,0.178228 l -0.169736,1.120257 c -0.263088,0.101865 -0.509205,0.25459 -0.738346,0.41584 l -1.086304,-0.424336 c -0.101837,-0.04241 -0.212169,0 -0.26309,0.09341 l -0.874136,1.468216 c -0.05092,0.101865 -0.02546,0.212168 0.05941,0.280064 l 0.916568,0.695905 c -0.01698,0.13582 -0.02546,0.280064 -0.02546,0.415855 0,0.144273 0.01698,0.280064 0.03396,0.415855 l -0.925056,0.704387 c -0.08487,0.05946 -0.101836,0.178228 -0.05092,0.271582 l 0.874136,1.468202 c 0.05092,0.09341 0.169735,0.127368 0.263088,0.09341 l 1.086304,-0.424337 c 0.229143,0.169746 0.475258,0.305523 0.738348,0.415855 l 0.169734,1.120257 c 0.0085,0.101865 0.101836,0.178213 0.212169,0.178213 h 1.748271 c 0.110332,0 0.203681,-0.07636 0.212169,-0.178213 l 0.169734,-1.120257 c 0.26309,-0.101865 0.509205,-0.254605 0.738348,-0.415855 l 1.086304,0.424337 c 0.101836,0.04241 0.212168,0 0.263088,-0.09341 l 0.874136,-1.468202 c 0.05092,-0.09341 0.03394,-0.203687 -0.05092,-0.271582 z m -3.241939,1.069324 c -0.840188,0 -1.527615,-0.661964 -1.527615,-1.485179 0,-0.823215 0.687427,-1.485179 1.527615,-1.485179 0.840187,0 1.527615,0.661964 1.527615,1.485179 0,0.823215 -0.67894,1.485179 -1.527615,1.485179 z m 9.33543,-10.812123 -8.486755,-0.0087 c -0.933543,0 -1.697349,0.763815 -1.697349,1.697347 v 2.546036 h 1.697349 v -0.848674 h 8.486755 v 11.881404 h -8.486755 v -0.848674 h -1.697349 v 2.546021 c 0,0.933547 0.763806,1.697348 1.697349,1.697348 h 8.486755 c 0.93353,0 1.69734,-0.763801 1.69734,-1.697348 V 26.078936 c 0,-0.933547 -0.76381,-1.688866 -1.69734,-1.688866 z"
       id="path523" />
    <flowRoot
       xml:space="preserve"
       id="flowRoot461"
       style="font-style:normal;font-weight:normal;font-size:13.33333397px;line-height:1.25;font-family:sans-serif;letter-spacing:0px;word-spacing:0px;fill:#000000;fill-opacity:1;stroke:none"
       transform="matrix(0.26458333,0,0,0.26458333,69.582285,-18.73705)"><flowRegion
         id="flowRegion457"
         style="font-size:13.33333397px;fill:#000000"><rect
           id="rect455"
           width="331.33005"
           height="61.114231"
           x="20.708128"
           y="106.8113"
           style="font-size:13.33333397px;fill:#000000" /></flowRegion><flowPara
         style="font-style:normal;font-variant:normal;font-weight:bold;font-stretch:normal;font-size:14.66666698px;font-family:sans-serif;-inkscape-font-specification:'sans-serif, Bold';font-variant-ligatures:normal;font-variant-caps:normal;font-variant-numeric:normal;font-feature-settings:normal;text-align:start;writing-mode:lr-tb;text-anchor:start;fill:#ffffff"
         id="flowPara467">Early Deployments</flowPara></flowRoot>    <path
       style="fill:#ffffff;stroke-width:0.97642946"
       inkscape:connector-curvature="0"
       d="m 175.60612,35.918914 h -0.77138 l -0.2734,-0.263638 c 0.95691,-1.113132 1.533,-2.558242 1.533,-4.130297 0,-3.505384 -2.84141,-6.346786 -6.3468,-6.346786 -3.50538,0 -6.34678,2.841402 -6.34678,6.346786 0,3.505385 2.8414,6.346786 6.34678,6.346786 1.57206,0 3.01717,-0.576081 4.1303,-1.532984 l 0.26364,0.273399 v 0.771379 l 4.88215,4.87238 1.45487,-1.454884 z m -5.85858,0 c -2.43131,0 -4.39393,-1.962625 -4.39393,-4.393935 0,-2.431309 1.96262,-4.393935 4.39393,-4.393935 2.43131,0 4.39394,1.962626 4.39394,4.393935 0,2.43131 -1.96263,4.393935 -4.39394,4.393935 z"
       id="path219" />
    <flowRoot
       transform="matrix(0.26458333,0,0,0.26458333,131.38992,-18.73704)"
       style="font-style:normal;font-weight:normal;font-size:13.33333397px;line-height:1.25;font-family:sans-serif;letter-spacing:0px;word-spacing:0px;fill:#000000;fill-opacity:1;stroke:none"
       id="flowRoot163"
       xml:space="preserve"><flowRegion
         style="font-size:13.33333397px;fill:#000000"
         id="flowRegion159"><rect
           style="font-size:13.33333397px;fill:#000000"
           y="106.8113"
           x="20.708128"
           height="61.114231"
           width="331.33005"
           id="rect157" /></flowRegion><flowPara
         id="flowPara161"
         style="font-style:normal;font-variant:normal;font-weight:bold;font-stretch:normal;font-size:14.66666698px;font-family:sans-serif;-inkscape-font-specification:'sans-serif, Bold';font-variant-ligatures:normal;font-variant-caps:normal;font-variant-numeric:normal;font-feature-settings:normal;text-align:start;writing-mode:lr-tb;text-anchor:start;fill:#ffffff">Additional Evaluation</flowPara></flowRoot>  </g>
  <g
     inkscape:groupmode="layer"
     id="layer4"
     inkscape:label="Timeline Base">
    <g
       style="display:inline"
       id="g1960"
       transform="translate(0,-10.583334)">
      <path
         inkscape:connector-curvature="0"
         id="path1951"
         d="m 1.6478189,76.228323 c 206.5266411,0 206.5266411,0 206.5266411,0"
         style="fill:#000000;stroke:#000000;stroke-width:0.26458332px;stroke-linecap:butt;stroke-linejoin:miter;stroke-opacity:1" />
      <rect
         y="74.626274"
         x="1.6478188"
         height="3.204093"
         width="0.091545559"
         id="rect1953"
         style="fill:#000000;fill-opacity:1;stroke:#000000;stroke-width:0.26458332;stroke-opacity:1" />
      <rect
         style="fill:#000000;fill-opacity:1;stroke:#000000;stroke-width:0.26458332;stroke-opacity:1"
         id="rect1955"
         width="0.091545559"
         height="3.204093"
         x="208.0829"
         y="74.626274" />
    </g>
    <path
       style="fill:none;stroke:#000000;stroke-width:0.21517511px;stroke-linecap:butt;stroke-linejoin:miter;stroke-opacity:1"
       d="m 4.570278,59.251824 c 0,13.52908 0,13.52908 0,13.52908"
       id="path931"
       inkscape:connector-curvature="0" />
    <text
       xml:space="preserve"
       style="font-style:normal;font-weight:normal;font-size:3.17499995px;line-height:1.25;font-family:sans-serif;letter-spacing:0px;word-spacing:0px;fill:#000000;fill-opacity:1;stroke:none;stroke-width:0.26458332"
       x="1.8125082"
       y="76.017525"
       id="text935"><tspan
         sodipodi:role="line"
         x="1.8125082"
         y="76.017525"
         style="font-weight:bold;font-size:3.17499995px;stroke-width:0.26458332"
         id="tspan937">February 2018</tspan></text>
    <flowRoot
       xml:space="preserve"
       id="flowRoot941"
       style="fill:black;fill-opacity:1;stroke:none;font-family:sans-serif;font-style:normal;font-weight:normal;font-size:10.66666667px;line-height:1.25;letter-spacing:0px;word-spacing:0px;"><flowRegion
         id="flowRegion943"
         style="font-size:10.66666667px;"><rect
           id="rect945"
           width="101.72363"
           height="98.955635"
           x="6.9199743"
           y="295.71906"
           style="font-size:10.66666667px;" /></flowRegion><flowPara
         id="flowPara947"></flowPara></flowRoot>    <flowRoot
       xml:space="preserve"
       id="flowRoot973"
       style="font-style:normal;font-variant:normal;font-weight:normal;font-stretch:normal;font-size:10.66666698px;line-height:1.25;font-family:sans-serif;-inkscape-font-specification:'sans-serif, Normal';font-variant-ligatures:normal;font-variant-caps:normal;font-variant-numeric:normal;font-feature-settings:normal;text-align:start;letter-spacing:0px;word-spacing:0px;writing-mode:lr-tb;text-anchor:start;fill:#000000;fill-opacity:1;stroke:none"
       transform="matrix(0.26458333,0,0,0.26458333,-0.00443512,0)"><flowRegion
         id="flowRegion975"
         style="font-style:normal;font-variant:normal;font-weight:normal;font-stretch:normal;font-size:10.66666698px;font-family:sans-serif;-inkscape-font-specification:'sans-serif, Normal';font-variant-ligatures:normal;font-variant-caps:normal;font-variant-numeric:normal;font-feature-settings:normal;text-align:start;writing-mode:lr-tb;text-anchor:start"><rect
           id="rect977"
           width="99.647636"
           height="25.949892"
           x="7.2659731"
           y="295.02707"
           style="font-style:normal;font-variant:normal;font-weight:normal;font-stretch:normal;font-size:10.66666698px;font-family:sans-serif;-inkscape-font-specification:'sans-serif, Normal';font-variant-ligatures:normal;font-variant-caps:normal;font-variant-numeric:normal;font-feature-settings:normal;text-align:start;writing-mode:lr-tb;text-anchor:start" /></flowRegion><flowPara
         id="flowPara981">Fieldwork begins</flowPara><flowPara
         id="flowPara983">@ Patchwork</flowPara></flowRoot>  </g>
</svg>
